<svg xmlns="http://www.w3.org/2000/svg" viewBox="0 0 100 100" width="100" height="100">
	<defs>
		<linearGradient id="mtGrad" x1="0%" y1="0%" x2="100%" y2="100%">
			<stop offset="0%" style="stop-color:#3B4252;stop-opacity:1" />
			<stop offset="100%" style="stop-color:#4C566A;stop-opacity:1" />
		</linearGradient>
	</defs>
	<rect width="100" height="100" rx="20" fill="url(#mtGrad)" />
	<g fill="#88C0D0">
		<!-- Wheel rim -->
		<circle cx="50" cy="50" r="35" fill="none" stroke="#88C0D0" stroke-width="6" />
		<circle cx="50" cy="50" r="25" fill="none" stroke="#88C0D0" stroke-width="4" />
		<circle cx="50" cy="50" r="8" fill="#88C0D0" />
		<!-- Spokes -->
		<rect x="48" y="15" width="4" height="20" rx="2" />
		<rect x="48" y="65" width="4" height="20" rx="2" />
		<rect x="15" y="48" width="20" height="4" rx="2" />
		<rect x="65" y="48" width="20" height="4" rx="2" />
		<rect x="26" y="24" width="4" height="18" rx="2" transform="rotate(45 28 33)" />
		<rect x="70" y="24" width="4" height="18" rx="2" transform="rotate(-45 72 33)" />
		<rect x="26" y="58" width="4" height="18" rx="2" transform="rotate(-45 28 67)" />
		<rect x="70" y="58" width="4" height="18" rx="2" transform="rotate(45 72 67)" />
	</g>
</svg>
